# xmcd CD database file
# Copyright (C) 1995-1998 Ti Kan
#
# Track frame offsets:
#	150
#	15961
#	30026
#	45858
#	58817
#	74016
#	87745
#	102654
#	114812
#	130473
#	144566
#	158409
#
# Disc length: 2253 seconds
#
# Revision: 2
# Processed by: cddbd v1.4PL0 Copyright (c) Steve Scherf et al.
# Submitted via: CDex 1.30Release
#
DISCID=9608cb0c
DTITLE=Ornella Vanoni - e poi....la tua bocca da baciare
DYEAR=2001
DGENRE=Blues
TTITLE0=Amore caro, amore bello
TTITLE1=Estate
TTITLE2=Insieme a te non ci sto più
TTITLE3=Arrivederci
TTITLE4=Ora sei rimasto solo ora sei rimasta sola
TTITLE5=Io per lui io per lei
TTITLE6=Il mio mondo
TTITLE7=Nessuno al mondo
TTITLE8=Malattia d'amore
TTITLE9=Io che amo solo te
TTITLE10=Gianna 
TTITLE11=Sassi
EXTD=YEAR: 2001 ID3G:   0
EXTT0=
EXTT1=
EXTT2=
EXTT3=
EXTT4=
EXTT5=
EXTT6=
EXTT7=
EXTT8=
EXTT9=
EXTT10=
EXTT11=
PLAYORDER=
